<svg id="Layer_2" data-name="Layer 2" xmlns="http://www.w3.org/2000/svg" width="36" height="36" viewBox="0 0 36 36">
  <g id="invisible_box" data-name="invisible box">
    <rect id="Прямоугольник_473" data-name="Прямоугольник 473" width="36" height="36" fill="none"/>
  </g>
  <g id="icons_Q2" data-name="icons Q2" transform="translate(1.5 3)">
    <path id="Контур_153" data-name="Контур 153" d="M26,4c-2.925,0-6,2.325-7.5,4.875C17,6.325,13.925,4,11,4A9,9,0,0,0,4.625,6.7,8.925,8.925,0,0,0,2,13.075c0,3.075,2.025,5.7,3.75,7.65l12.225,13.05a.75.75,0,0,0,1.05,0L31.25,20.725c1.725-1.95,3.75-4.575,3.75-7.65A9.075,9.075,0,0,0,26,4Z" transform="translate(-2 -4)" fill="#eb2020"/>
  </g>
</svg>
