<svg xmlns="http://www.w3.org/2000/svg" xmlns:xlink="http://www.w3.org/1999/xlink" width="110" height="57.135" viewBox="0 0 110 57.135">
  <defs>
    <linearGradient id="linear-gradient" y1="0.5" x2="1" y2="0.5" gradientUnits="objectBoundingBox">
      <stop offset="0" stop-color="#eb3349"/>
      <stop offset="1" stop-color="#f45c43"/>
    </linearGradient>
  </defs>
  <path id="Контур_159" data-name="Контур 159" d="M4.761,5.666h10.3V-33.189H4.761ZM9.949-39.153a5.607,5.607,0,0,0,4.094-1.676,5.479,5.479,0,0,0,1.694-4.041,5.519,5.519,0,0,0-1.694-4.076,5.607,5.607,0,0,0-4.094-1.676,5.684,5.684,0,0,0-4.094,1.676A5.464,5.464,0,0,0,4.126-44.87a5.424,5.424,0,0,0,1.729,4.041A5.684,5.684,0,0,0,9.949-39.153ZM29.676,5.666h10.8l6.882-27.1h.635l6.952,27.1h10.94l10.34-38.855h-10.2L60.238-5.063H59.6L52.756-33.189H42.945L36.134-5.063H35.5L29.711-33.189H19.3Zm66.487.847a22.4,22.4,0,0,0,7.393-1.094A16.947,16.947,0,0,0,108.779,2.6a14.658,14.658,0,0,0,3.3-3.723,14.151,14.151,0,0,0,1.659-3.829l.071-.353h-9.6L104.1-5.1a5.8,5.8,0,0,1-1.323,1.641,8.716,8.716,0,0,1-2.559,1.57,9.877,9.877,0,0,1-3.847.671,8.993,8.993,0,0,1-4.8-1.235A8.1,8.1,0,0,1,88.47-6.016a13.115,13.115,0,0,1-1.094-5.611v-4.164a13.33,13.33,0,0,1,1.112-5.735,8.275,8.275,0,0,1,3.035-3.564,8.039,8.039,0,0,1,4.394-1.218,8.1,8.1,0,0,1,4.394,1.182,7.922,7.922,0,0,1,2.964,3.511,13.876,13.876,0,0,1,1.076,5.823v4.129l4.835-6.105H82.329v6.458h31.8v-3.211A22.4,22.4,0,0,0,111.9-24.79,16.3,16.3,0,0,0,105.55-31.6a18.969,18.969,0,0,0-9.811-2.435,18.759,18.759,0,0,0-9.828,2.506,16.762,16.762,0,0,0-6.458,7.058,23.72,23.72,0,0,0-2.276,10.728v.035A23.513,23.513,0,0,0,79.471-2.945a16.558,16.558,0,0,0,6.546,6.987A19.857,19.857,0,0,0,96.163,6.513Z" transform="translate(-4.126 50.623)" fill="url(#linear-gradient)"/>
</svg>
